<?xml version="1.0" encoding="utf-8"?>
<!-- Generator: Adobe Illustrator 15.0.2, SVG Export Plug-In . SVG Version: 6.00 Build 0)  -->
<!DOCTYPE svg PUBLIC "-//W3C//DTD SVG 1.1//EN" "http://www.w3.org/Graphics/SVG/1.1/DTD/svg11.dtd">
<svg version="1.1" id="Layer_1" xmlns="http://www.w3.org/2000/svg" xmlns:xlink="http://www.w3.org/1999/xlink" x="0px" y="0px"
	 width="272.094px" height="49.711px" viewBox="0 -1 272.094 49.711" enable-background="new 0 -1 272.094 49.711"
	 xml:space="preserve">
<polygon fill="#643C78" points="195.801,-0.271 183.147,-0.271 164.957,23.351 176.265,47.984 187.905,47.984 176.597,23.353 "/>
<path fill="#643C78" d="M66.361-0.271C55.404-0.076,50.842,3.84,49.354,12.316c0,0-4.306,23.084-4.306,25.654
	c0,5.868,3.724,9.995,13.56,9.995h14.238l1.309-7.881H58.39c-3.392-0.23-4.146-1.182-4.146-3.345c0-1.559,1.553-9.695,1.553-9.695
	h19.164l1.384-7.896H57.193l0.984-5.528c0.78-4.37,2.479-5.912,7.601-5.992h14.134l1.457-7.899
	C81.369-0.271,66.64-0.275,66.361-0.271"/>
<path fill="#643C78" d="M110.839,14.292c0.078-0.578,0.152-1.16,0.152-1.664c0-3.63-2.109-5.727-8.046-5.727
	c-6.452,0-9.637,2.462-10.508,7.391l-3.332,18.91c-0.146,0.877-0.213,1.67-0.213,2.395c0,3.393,1.957,5.217,8.104,5.217
	c6.603,0,9.642-2.68,10.512-7.539L110.839,14.292z M79.759,36.759c0-1.018,0.078-2.109,0.294-3.195l3.551-20.076
	c1.67-9.485,7.022-14.482,20.285-14.482c11.011,0,16.146,5.649,16.146,12.752c0,0.871-0.065,1.668-0.211,2.535l-3.479,19.711
	c-1.734,9.777-6.812,14.707-20.795,14.707C84.543,48.71,79.759,43.781,79.759,36.759"/>
<path fill="#643C78" d="M119.176,45.734l1.953-6.952c4.642,1.376,8.621,2.315,13.117,2.315c6.804,0,7.967-1.447,8.829-6.226
	c0.224-1.234,0.36-2.248,0.36-3.039c0-2.539-1.586-3.117-7.963-4.789c-8.402-2.102-10.867-5.438-10.867-10.575
	c0-1.452,0.22-3.044,0.506-4.792C126.93,1.54,130.19-1,142.864-1c4.277,0,8.912,0.511,13.483,1.886l-1.537,7.463
	c-4.556-1.093-8.688-1.661-12.674-1.661c-6.301,0-7.527,0.865-8.324,5.576c-0.228,1.223-0.365,2.238-0.365,3.033
	c0,2.396,1.601,3.198,7.685,4.784c8.685,2.253,11.375,4.794,11.375,10.075c0,1.375-0.227,2.9-0.52,4.715
	c-1.73,9.777-4.557,13.837-18.4,13.837C129.534,48.71,123.156,47.689,119.176,45.734"/>
<path fill="#643C78" d="M222.315,14.292c0.07-0.578,0.152-1.16,0.152-1.664c0-3.63-2.105-5.727-8.047-5.727
	c-6.453,0-9.646,2.462-10.504,7.391l-3.337,18.91c-0.146,0.877-0.22,1.67-0.22,2.395c0,3.393,1.957,5.217,8.117,5.217
	c6.59,0,9.637-2.68,10.5-7.539L222.315,14.292z M191.237,36.759c0-1.018,0.066-2.109,0.293-3.195l3.552-20.076
	c1.664-9.485,7.022-14.482,20.285-14.482c11,0,16.147,5.649,16.147,12.752c0,0.871-0.066,1.668-0.211,2.535l-3.48,19.711
	c-1.741,9.777-6.814,14.707-20.793,14.707C196.011,48.71,191.237,43.781,191.237,36.759"/>
<path fill="#643C78" d="M35.145,0.512c-1.972-0.51-4.317-0.783-7.104-0.783h-9.047H9.007L7.019,10.413L0,47.958h8.987l7.242-40.03
	h9.397c5.935,0,8.041,1.07,8.041,4.7c0,0.504-0.076,1.086-0.146,1.664L30.35,31.727l-2.957,16.231h8.979l4.655-25.52l1.478-8.146
	c0.146-0.867,0.216-1.664,0.216-2.535C42.721,6.859,40.283,2.662,35.145,0.512"/>
<path fill="#643C78" d="M262.749,13.857c0.142-0.799,0.22-1.521,0.22-2.029c0-2.753-1.457-4.203-5.513-4.203h-9.854l-2.978,16.885
	h9.711c5.367,0,6.812-1.662,7.535-5.724L262.749,13.857z M243.254,32.263l-2.755,15.723h-8.983l8.478-48.257h17.897
	c9.926,0,14.203,3.838,14.203,10.355c0,0.942-0.074,2.177-0.293,3.337l-1.091,6.161c-1.37,8.044-4.562,12.681-16.948,12.681H243.254
	L243.254,32.263z"/>
<polygon fill="#643C78" points="178.722,-0.271 172.14,-0.271 153.943,23.351 160.548,23.351 "/>
</svg>
