<?xml version="1.0" encoding="utf-8"?>
<!DOCTYPE svg PUBLIC "-//W3C//DTD SVG 1.1//EN" "http://www.w3.org/Graphics/SVG/1.1/DTD/svg11.dtd">
<svg version="1.1" xmlns="http://www.w3.org/2000/svg" xmlns:xlink="http://www.w3.org/1999/xlink" x="0px" y="0px" width="635.6px" height="122.8px"
	 viewBox="0 0 635.6 122.8" enable-background="new 0 0 635.6 122.8" xml:space="preserve">
		<path fill="#3F4248" d="M52.7,96.4l-2.3,0.9c-2,0.8-4.2,1.3-6.6,1.8c-2.4,0.4-4.8,0.6-7.1,0.6c-4.2,0-7-1.1-8.3-3.2
			c-1.5-2.5-2.2-5.9-2.2-10.2V60.4h26.9V37.8H26.4V14.2L0,18.5v68c0,5.2,0.5,10.1,1.5,14.4c1,4.5,2.8,8.4,5.4,11.5
			c2.6,3.2,6.1,5.7,10.4,7.5c4.2,1.7,9.6,2.6,15.9,2.6c4.9,0,9.2-0.4,12.6-1.3c3.4-0.8,6.5-1.8,9.3-2.9l1.5-0.6L52.7,96.4z"/>
		<path fill="#3F4248" d="M129.3,56.1c-1.2-4.3-3.2-8-6.1-11c-2.9-3-6.7-5.4-11.4-7c-4.6-1.6-10.4-2.4-17.1-2.4
			c-2.6,0-5.3,0.1-7.9,0.4c-2.6,0.3-5.1,0.6-7.4,0.9c-2.4,0.4-4.6,0.8-6.5,1.2c-2,0.5-3.7,0.9-5,1.3l-1.7,0.5l3.5,22.1l2.3-0.8
			c2.6-0.9,5.7-1.7,9.2-2.2c3.6-0.5,7.3-0.8,11-0.8c5.1,0,8.7,1,10.6,2.9c1.8,1.9,2.8,4.3,2.9,7.3c-1-0.2-2-0.3-3.3-0.5
			c-2.3-0.3-5-0.4-7.9-0.4c-4.4,0-8.7,0.4-12.9,1.3c-4.2,0.9-8,2.4-11.3,4.4c-3.4,2.1-6.1,4.9-8.1,8.4c-2,3.5-3,7.8-3,12.7
			c0,5.1,0.9,9.5,2.6,13c1.7,3.6,4.3,6.6,7.6,8.8c3.2,2.2,7,3.8,11.4,4.7c4.3,0.9,9.1,1.4,14.3,1.4c8.2,0,15.2-0.5,21-1.5
			c5.7-0.9,10.2-1.8,13.4-2.5l1.6-0.3V70C131,64.9,130.5,60.3,129.3,56.1z M86.2,90.5c0.6-0.9,1.4-1.6,2.5-2.2
			c1.2-0.6,2.6-1,4.2-1.2c1.8-0.2,3.7-0.4,5.7-0.4c1.4,0,3,0.1,4.7,0.3c0.9,0.1,1.6,0.2,2.3,0.3v13.5c-0.8,0.1-1.8,0.2-2.9,0.2
			c-2,0.1-4,0.1-6.2,0.1c-3.7,0-6.6-0.6-8.7-1.8c-1.7-1-2.5-2.8-2.5-5.5C85.3,92.5,85.6,91.3,86.2,90.5z"/>
		<path fill="#3F4248" d="M206.2,87.9c-0.8-2.8-2.3-5.3-4.3-7.6c-2-2.2-4.7-4.3-8.1-6.1c-3.3-1.8-7.5-3.7-12.4-5.5
			c-2.3-0.9-4.3-1.7-5.8-2.4c-1.4-0.7-2.6-1.3-3.4-1.9c-0.8-0.6-1-1-1.1-1.2c-0.2-0.4-0.3-1-0.3-1.6c0-1,0-3.9,8.5-3.9
			c3.6,0,6.9,0.3,9.8,1c3,0.7,5.8,1.5,8.3,2.3l2.1,0.7l4.8-21.3l-1.6-0.6c-2.7-1-6.3-2-10.8-2.9c-4.5-0.9-9.3-1.3-14.2-1.3
			c-10,0-18,2.3-23.9,6.9c-6,4.7-9,11.1-9,19.1c0,4,0.6,7.6,1.8,10.5c1.2,2.9,2.9,5.5,5.1,7.7c2.1,2.1,4.8,3.9,7.8,5.4
			c2.9,1.4,6.2,2.8,9.7,4.1c4.4,1.7,7.6,3.1,9.7,4.4c2.3,1.4,2.3,2.6,2.3,3c0,1.9-0.7,2.5-1.4,2.8c-1,0.5-3.1,1-7.8,1
			c-3.7,0-7.6-0.4-11.4-1.2c-3.9-0.8-7.7-2-11.4-3.4l-2.2-0.9l-4.6,22.1l1.5,0.7c1.9,0.9,5.2,1.9,10,3.1c4.8,1.2,10.8,1.9,18,1.9
			c11.1,0,19.8-2.1,26-6.3c6.4-4.4,9.6-10.9,9.6-19.3C207.4,93.7,207,90.6,206.2,87.9z"/>
		<path fill="#3F4248" d="M292.3,106.7c-2.5-4-5.3-8.1-8.3-12.2c-3-4-6.2-8-9.4-11.7c-2.7-3.2-5.4-6-7.9-8.4
			c5.4-5.4,10.5-10.7,15.2-15.7c5-5.5,10.3-11.4,15.6-17.5l2.9-3.3h-31.9l-0.6,0.7c-1.4,1.7-3.1,3.7-5,5.9c-1.9,2.3-4,4.7-6.2,7.2
			c-2.2,2.5-4.4,5.1-6.8,7.6c-1.1,1.2-2.2,2.5-3.3,3.7V0L220,4.2v116.5h26.4V88.6c1.3,1.3,2.7,2.7,4.1,4.3c2.5,2.8,4.9,5.9,7.1,9
			c2.3,3.1,4.4,6.3,6.5,9.4c2,3.1,3.9,6,5.4,8.6l0.6,1h30.1l-1.5-2.9C297,114.5,294.8,110.8,292.3,106.7z"/>
		<path fill="#ff8900" d="M336.8,98.1c2.3-3.2,4.8-6.5,7.4-9.8c3.5-4.5,7.1-8.8,10.5-12.8c3.5-4,6.8-7.8,9.8-11.2l1.3-1.5
			c2.4-2.7,4.4-4.9,6-6.6l0.5-0.6V37.8h-66.7v22.6H337c-1.9,2.3-4,4.8-6.1,7.5c-3.2,4-6.5,8.1-9.7,12.3c-3.2,4.2-6.4,8.4-9.3,12.6
			c-3,4.2-5.6,8.1-7.7,11.8l-0.3,0.5v15.7h69.2V98.1H336.8z"/>
		<path fill="#ff8900" d="M456.7,61.5c-2-5.3-4.8-9.9-8.4-13.7c-3.6-3.8-7.9-6.8-12.9-8.9c-5-2.1-10.5-3.2-16.5-3.2
			c-5.8,0-11.3,1.1-16.3,3.2c-5,2.1-9.3,5.1-13,8.9c-3.6,3.8-6.5,8.4-8.5,13.7c-2,5.3-3.1,11.2-3.1,17.7c0,6.4,1,12.4,3,17.7
			c2,5.4,4.8,10,8.4,13.9c3.6,3.8,7.9,6.9,12.9,9c5,2.1,10.6,3.2,16.6,3.2c6.1,0,11.8-1.1,16.8-3.2c5-2.1,9.3-5.1,12.9-9
			c3.6-3.8,6.3-8.5,8.2-13.9c1.9-5.3,2.8-11.3,2.8-17.7C459.7,72.7,458.7,66.8,456.7,61.5z M419,99.6c-4.4,0-7.8-1.7-10.2-5.2
			c-2.6-3.7-3.8-8.8-3.8-15.3c0-6.4,1.3-11.5,3.8-15.1c2.4-3.4,5.8-5.1,10.2-5.1c4.4,0,7.8,1.7,10.1,5.1c2.5,3.6,3.8,8.7,3.8,15.1
			c0,6.5-1.3,11.6-3.8,15.3C426.7,97.9,423.4,99.6,419,99.6z"/>
		<path fill="#ff8900" d="M543.3,59c-1.2-4.7-3.2-8.8-5.9-12.2c-2.8-3.5-6.6-6.2-11.4-8c-4.7-1.8-10.5-2.8-17.5-2.8
			c-6.7,0-13.1,0.5-19.2,1.5c-6.1,1-11.1,2-14.9,3.1l-1.4,0.4v79.7h26.3V59.6c0.9-0.1,1.9-0.2,3-0.3c1.7-0.1,3.4-0.2,4.9-0.2
			c4.5,0,7.4,1.2,9,3.6c1.7,2.7,2.5,7.5,2.5,14.2v43.8H545V74.2C545,68.7,544.5,63.6,543.3,59z"/>
		<path fill="#ff8900" d="M625.3,46.6c-6.9-7.2-16.3-10.9-28-10.9c-5,0-10,1-14.8,2.8c-4.8,1.9-9.1,4.7-12.8,8.4
			c-3.7,3.7-6.7,8.3-8.9,13.8c-2.2,5.5-3.4,11.9-3.4,19.1c0,6,0.9,11.6,2.6,16.8c1.7,5.3,4.5,9.9,8.1,13.7c3.6,3.8,8.3,6.9,13.8,9.1
			c5.5,2.2,11.9,3.3,19.3,3.3c2.9,0,5.8-0.2,8.6-0.5c2.8-0.3,5.5-0.7,8-1.1c2.5-0.5,4.8-1,6.9-1.6c2.1-0.6,3.8-1.3,5.1-1.9l1.3-0.7
			l-3.7-22.1l-2.4,1c-2.3,1-5.5,1.9-9.2,2.6c-3.8,0.7-7.7,1.1-11.7,1.1c-5.9,0-10.7-1.2-14.1-3.7c-2.7-1.9-4.4-4.3-5.2-7.3H635
			l0.1-1.8c0.1-1.2,0.2-2.6,0.3-4.2c0.1-1.6,0.2-3.1,0.2-4.4C635.6,64.5,632.2,53.8,625.3,46.6z M609.8,69.3h-24.9
			c0.2-1,0.5-2,0.9-3c0.6-1.6,1.4-3,2.4-4.2c1-1.2,2.3-2.1,3.8-2.9c1.5-0.7,3.4-1.1,5.6-1.1c2.3,0,4.2,0.4,5.6,1.1
			c1.5,0.8,2.8,1.8,3.7,2.9c1,1.2,1.7,2.6,2.2,4.1C609.5,67.4,609.7,68.3,609.8,69.3z"/>
</svg>